<svg id="Layer_1" data-name="Layer 1" xmlns="http://www.w3.org/2000/svg" viewBox="0 0 69.216 88.472">
  <defs>
    <style>
      .cls-1 {
        fill: #fff;
      }

      .cls-2 {
        fill: #1a1818;
      }

      .cls-3 {
        fill: #f77e0b;
      }

      .cls-4 {
        fill: #e50019;
      }
    </style>
  </defs>
  <title>2f973e72-7610-4f19-b1a6-091876f1f7a2</title>
  <g>
    <polygon class="cls-1" points="3.605 26.935 7.152 27.585 11.585 29.476 11.88 27.88 11.112 25.28 9.93 23.329 14.067 23.566 19.387 23.27 25.83 21.793 30.44 21.083 36.115 21.319 40.134 22.029 44.745 23.211 47.05 23.447 51.956 23.506 54.814 23.541 55.296 23.599 54.497 24.689 53.633 26.171 53.374 27.289 53.197 28.944 53.315 29.535 55.266 28.59 57.866 27.526 60.349 27.053 61.59 26.876 61.768 27.349 61.827 29.476 61.472 30.482 61.295 30.836 61.768 31.9 61.768 33.2 61.472 34.146 61.118 34.974 60.29 34.619 59.521 34.737 59.403 36.156 59.048 36.688 57.985 37.515 57.926 37.929 57.866 38.342 57.334 38.816 57.453 39.23 56.921 39.702 56.684 40.588 55.798 40.412 55.798 41.652 55.384 42.48 54.438 43.485 54.202 43.839 54.261 45.967 53.906 46.381 53.67 47.15 53.67 47.445 53.374 47.741 53.315 48.154 53.611 48.391 53.611 48.864 53.352 49.568 53.019 49.81 53.906 59.208 57.453 59.149 57.186 71.139 7.743 71.088 7.743 59.089 11.053 59.149 12.117 49.455 11.526 48.628 11.88 48.154 11.644 47.445 11.18 46.655 11.053 45.908 10.876 43.544 9.693 42.362 9.398 41.003 9.575 40.234 8.688 40.588 8.275 39.82 7.743 39.17 7.565 38.579 7.329 37.633 6.561 37.101 5.674 36.156 5.682 34.512 4.137 34.974 3.369 33.378 3.428 31.605 3.901 30.6 3.369 29.063 3.605 26.935"/>
    <rect class="cls-1" x="6.622" y="71.168" width="52.053" height="1.757"/>
    <polygon class="cls-1" points="33.748 10.998 31.073 10.992 31.073 12.009 33.957 12.009 33.748 10.998"/>
    <path d="M84.2,34.554a2.33,2.33,0,0,0-1.228-1.237,2.381,2.381,0,0,0-1.758-.008,2.122,2.122,0,0,0-.721.484,2.3,2.3,0,0,0-.511.755,2.24,2.24,0,0,0-.177.875,2.216,2.216,0,0,0,.17.86,2.366,2.366,0,0,0,1.237,1.247,2.2,2.2,0,0,0,.87.177,2.233,2.233,0,0,0,.868-0.172,2.376,2.376,0,0,0,.748-0.5,2.175,2.175,0,0,0,.5-0.73A2.37,2.37,0,0,0,84.2,34.554Zm-0.324,1.632a1.9,1.9,0,0,1-.42.61,1.974,1.974,0,0,1-.644.423,2,2,0,0,1-.757.145,1.792,1.792,0,0,1-.719-0.151,1.987,1.987,0,0,1-1.043-1.054,1.906,1.906,0,0,1-.145-0.734,1.858,1.858,0,0,1,.151-0.738,2.056,2.056,0,0,1,.435-0.646,1.885,1.885,0,0,1,.614-0.414,1.936,1.936,0,0,1,.738-0.139,1.894,1.894,0,0,1,.747.147,1.967,1.967,0,0,1,.637.431,1.9,1.9,0,0,1,.415.631,2.043,2.043,0,0,1,.139.759A1.837,1.837,0,0,1,83.878,36.186Z" transform="translate(-15.153 -14.72)"/>
    <path d="M22.593,86V73.6h3.631L27,64.288c-0.059-.05-0.132-0.116-0.21-0.194h0a1.393,1.393,0,0,1-.423-0.714h0a0.83,0.83,0,0,1-.008-0.11h0a0.523,0.523,0,0,1,.244-0.461h0a0.564,0.564,0,0,1,.1-0.046h0a0.77,0.77,0,0,0-.046-0.245h0a0.264,0.264,0,0,0-.134-0.158h0l-0.3-.076,0.11-.3s0.011-.028.025-0.092h0a1.169,1.169,0,0,0,.029-0.247h0a0.721,0.721,0,0,0-.049-0.272h0a0.188,0.188,0,0,0-.178-0.156h0l-0.337.066,0.058-2.763a4.35,4.35,0,0,1-1.3-1.321h0a2.254,2.254,0,0,1-.287-1.152h0a3.456,3.456,0,0,1,.044-0.533h0l-0.853.182-0.257-1.043-0.676-.5,0.146-.445a1.152,1.152,0,0,1-.443-0.465h0a1.058,1.058,0,0,1-.1-0.471h0A1.57,1.57,0,0,1,22.17,52.5h0a4.7,4.7,0,0,1-1.237-1h0a2.84,2.84,0,0,1-.451-1.693h0V49.754h0a2.727,2.727,0,0,0-.352-0.027h0a0.966,0.966,0,0,0-.167.012h0a1.268,1.268,0,0,0-.467.231h0c-0.03.023-.042,0.033-0.042,0.033h0l-0.259.219-0.172-.292a6.921,6.921,0,0,1-.736-2.117h0a2.948,2.948,0,0,1-.046-0.518h0a3.531,3.531,0,0,1,.481-1.728h0a4.832,4.832,0,0,1-.493-1.946h0c-0.005-.113-0.007-0.224-0.007-0.33h0a5.7,5.7,0,0,1,.239-1.746h0l0.025-.073,4.66-4.009,3.483-.795,7.766-.342L42.762,32.3l6.221-1.4,6.957,2.789L62,36.671l5.631,0.255,5.015,0.614,4.373,3.937,0.024,0.069a5.689,5.689,0,0,1,.239,1.745h0c0,0.106,0,.216-0.008.33h0a4.834,4.834,0,0,1-.492,1.946h0a3.544,3.544,0,0,1,.48,1.728h0a2.928,2.928,0,0,1-.046.518h0a6.91,6.91,0,0,1-.735,2.117h0l-0.172.292L76.049,50l-0.043-.033h0c-0.03-.023-0.074-0.054-0.126-0.085h0a1.028,1.028,0,0,0-.342-0.146h0a1,1,0,0,0-.165-0.012h0a2.92,2.92,0,0,0-.353.026h0c0,0.016,0,.032,0,0.049h0a2.849,2.849,0,0,1-.451,1.693h0a4.713,4.713,0,0,1-1.238,1h0a1.671,1.671,0,0,1,.026.277h0a1.072,1.072,0,0,1-.1.471h0a1.156,1.156,0,0,1-.444.465h0l0.145,0.445-0.675.5L72.028,55.7l-0.853-.183a3.453,3.453,0,0,1,.044.533h0a2.257,2.257,0,0,1-.287,1.152h0a4.323,4.323,0,0,1-1.3,1.321h0l0.058,2.756-0.336-.06h0a0.188,0.188,0,0,0-.178.156h0a0.7,0.7,0,0,0-.05.272h0a1.125,1.125,0,0,0,.029.246h0a0.922,0.922,0,0,0,.025.092h0l0.11,0.3-0.3.076h0a0.238,0.238,0,0,0-.031.017h0a0.3,0.3,0,0,0-.1.138h0a0.808,0.808,0,0,0-.046.246h0a0.593,0.593,0,0,1,.1.046h0a0.525,0.525,0,0,1,.244.461h0a0.891,0.891,0,0,1-.008.111h0a1.383,1.383,0,0,1-.423.714h0c-0.077.078-.15,0.144-0.209,0.194h0L69.279,73.6h3.632V85.858H72.338V74.175H68.753L67.91,64.024l0.128-.094s0.029-.021.08-0.064h0c0.051-.042.121-0.1,0.189-0.173h0a0.938,0.938,0,0,0,.264-0.39h0V63.3h0l-0.276.042-0.046-.279a1.435,1.435,0,0,1-.018-0.244h0a1.411,1.411,0,0,1,.087-0.508h0a0.885,0.885,0,0,1,.259-0.362h0a1.73,1.73,0,0,1-.028-0.3h0a1.276,1.276,0,0,1,.094-0.494h0a0.793,0.793,0,0,1,.457-0.46h0L69.05,58.2l0.147-.084s0.043-.024.126-0.079h0c0.082-.055.2-0.137,0.327-0.242h0a3.471,3.471,0,0,0,.79-0.888h0a1.7,1.7,0,0,0,.207-0.86h0a2.87,2.87,0,0,0-.063-0.583h0a2.043,2.043,0,0,0-.061-0.231h0l-0.165-.479,1.248,0.267,0.174-.706,0.509-.375L72.1,53.365l0.284-.082,0.033-.013h0a0.753,0.753,0,0,0,.109-0.054h0a0.556,0.556,0,0,0,.22-0.222h0a0.494,0.494,0,0,0,.043-0.219h0a1.049,1.049,0,0,0-.028-0.23h0a0.8,0.8,0,0,0-.026-0.091h0l-0.088-.239,0.227-.115a5.147,5.147,0,0,0,.462-0.276h0a3.664,3.664,0,0,0,.791-0.687h0A2.367,2.367,0,0,0,74.45,49.8h0c0-.165-0.009-0.265-0.009-0.265h0l-0.022-.255,0.249-.051a4.139,4.139,0,0,1,.706-0.076h0a1.621,1.621,0,0,1,.261.019h0a1.574,1.574,0,0,1,.494.19h0c0.033-.071.071-0.155,0.11-0.25h0a6.816,6.816,0,0,0,.414-1.4h0a2.353,2.353,0,0,0,.037-0.417h0a2.982,2.982,0,0,0-.405-1.444h0c-0.044-.076-0.068-0.109-0.068-0.109h0L76.1,45.586l0.1-.162s0.022-.034.064-0.116h0a3.368,3.368,0,0,0,.159-0.364h0A4.413,4.413,0,0,0,76.7,43.6h0c0-.105.007-0.208,0.007-0.3h0a5.6,5.6,0,0,0-.177-1.459h0L76.523,41.8h0L72.4,38.086l-4.815-.59-5.727-.26-6.145-3.031-6.773-2.715L42.952,32.84l-8.414,4.053-7.831.346-3.295.752L18.98,41.805l-0.008.028h0C18.953,41.9,18.927,42,18.9,42.14h0a6.069,6.069,0,0,0-.107,1.152h0c0,0.1,0,.2.007,0.3h0a4.268,4.268,0,0,0,.431,1.711h0c0.042,0.082.064,0.116,0.064,0.116h0l0.1,0.162-0.112.157s-0.023.033-.067,0.109h0a2.976,2.976,0,0,0-.165.33h0a2.864,2.864,0,0,0-.241,1.115h0a2.3,2.3,0,0,0,.037.417h0a6.775,6.775,0,0,0,.524,1.653h0a1.555,1.555,0,0,1,.491-0.189h0a1.527,1.527,0,0,1,.265-0.02h0a4.117,4.117,0,0,1,.7.076h0l0.252,0.051-0.023.255s-0.01.1-.01,0.264h0a2.367,2.367,0,0,0,.324,1.334h0a3.675,3.675,0,0,0,.791.687h0a4.832,4.832,0,0,0,.462.276h0l0.227,0.116-0.088.239a0.771,0.771,0,0,0-.026.091h0a1.076,1.076,0,0,0-.028.23h0a0.5,0.5,0,0,0,.042.218h0a0.644,0.644,0,0,0,.329.277h0l0.033,0.013h0L23.4,53.365l-0.19.577,0.509,0.375L23.9,55.023l1.248-.267-0.166.48a2.268,2.268,0,0,0-.061.231h0a2.9,2.9,0,0,0-.064.583h0a1.7,1.7,0,0,0,.208.86h0a3.8,3.8,0,0,0,1.118,1.13h0c0.081,0.055.125,0.079,0.125,0.079h0L26.453,58.2,26.4,60.692a0.8,0.8,0,0,1,.458.46h0a1.277,1.277,0,0,1,.094.494h0a1.739,1.739,0,0,1-.027.3h0a0.871,0.871,0,0,1,.259.362h0a1.394,1.394,0,0,1,.087.507h0a1.6,1.6,0,0,1-.017.244h0l-0.046.283L26.931,63.3v0h0a1.4,1.4,0,0,0,.453.566h0c0.051,0.043.08,0.064,0.08,0.064h0l0.128,0.094L26.751,74.175H23.165V85.714L22.593,86h0Z" transform="translate(-15.153 -14.72)"/>
    <path d="M19.453,39.4l0.228-.327a8.357,8.357,0,0,1,2.458-2.049h0a6.97,6.97,0,0,1,2.879-1.134h0l0.292-.016,0.061,2.086c0.029,0.057.084,0.159,0.165,0.3h0c0.131,0.226.329,0.547,0.592,0.921h0a5.158,5.158,0,0,1,.749,1.924h0L26.6,41.15l0.078-.275L26.6,41.15l0.282-.044,0.07,0.441L19.453,39.4h0Z" transform="translate(-15.153 -14.72)"/>
    <path class="cls-1" d="M26.209,40.742c-0.011-.04-0.022-0.081-0.036-0.124h0a3.984,3.984,0,0,0-.512-1.107h0a11.2,11.2,0,0,1-.831-1.35h0L24.8,38.1l-0.046-1.6c-0.1.022-.222,0.052-0.368,0.1h0a8.8,8.8,0,0,0-1.955.907h0a9.431,9.431,0,0,0-2.015,1.57h0l5.79,1.658h0Z" transform="translate(-15.153 -14.72)"/>
    <path d="M68.625,41.106a5.154,5.154,0,0,1,.749-1.925h0c0.264-.374.461-0.695,0.592-0.921h0c0.081-.14.135-0.241,0.165-0.3h0l0.06-2.087,0.293,0.016a6.977,6.977,0,0,1,2.879,1.134h0a8.327,8.327,0,0,1,2.457,2.049h0L76.05,39.4l-7.063,2.022-0.431.123,0.069-.441h0Z" transform="translate(-15.153 -14.72)"/>
    <path class="cls-1" d="M70.7,38.1l-0.027.056a11.189,11.189,0,0,1-.831,1.35h0a3.984,3.984,0,0,0-.512,1.107h0c-0.013.043-.025,0.084-0.036,0.124h0l5.79-1.658c-0.065-.069-0.142-0.149-0.233-0.235h0a10.038,10.038,0,0,0-1.781-1.334h0a7.906,7.906,0,0,0-2.324-1h0L70.7,38.1h0Z" transform="translate(-15.153 -14.72)"/>
    <polygon points="27.706 0.36 28.267 0.248 30.691 12.277 30.131 12.39 27.706 0.36 27.706 0.36"/>
    <path d="M48.328,20.4a9.136,9.136,0,0,0-1.93-.319h0c-0.149-.009-0.3-0.012-0.457-0.012h0a13.993,13.993,0,0,0-1.6.1h0a0.3,0.3,0,0,1-.3-0.141h0a0.3,0.3,0,0,1,.007-0.329h0s0.028-.04.079-0.131h0a3.591,3.591,0,0,0,.187-0.393h0a3.58,3.58,0,0,0,.274-1.339h0a2.985,2.985,0,0,0-.023-0.376h0a1.892,1.892,0,0,0-1.227-1.5h0l-0.038-.014h0A0.3,0.3,0,0,1,43.1,15.7h0a0.3,0.3,0,0,1,.131-0.294h0a4.324,4.324,0,0,1,.894-0.389h0a5.725,5.725,0,0,1,1.769-.3h0a4.466,4.466,0,0,1,.8.07h0a6.354,6.354,0,0,1,1.894.64h0a18.77,18.77,0,0,0,1.861.89h0a5.928,5.928,0,0,0,2.178.469h0a2.584,2.584,0,0,0,1.492-.375h0l0.01-.006h0a0.3,0.3,0,0,1,.327-0.039h0a0.3,0.3,0,0,1,.167.284h0c0.017,0.078-.149,1.315-2.036,1.785h0a5.277,5.277,0,0,1-1.31.182h0c-0.114,0-.222,0-0.321-0.013h0a1.727,1.727,0,0,0,.643.271h0a1.868,1.868,0,0,0,.373.034h0a3.924,3.924,0,0,0,1.1-.187h0a4.813,4.813,0,0,0,.515-0.187h0a0.3,0.3,0,0,1,.354.078h0a0.3,0.3,0,0,1,.023.362h0A4.016,4.016,0,0,1,51.109,20.6h0a9.657,9.657,0,0,1-.975.054H50.124a6.606,6.606,0,0,1-1.8-.256h0Z" transform="translate(-15.153 -14.72)"/>
    <path class="cls-1" d="M46.433,19.474a9.718,9.718,0,0,1,2.042.336h0a6.009,6.009,0,0,0,1.658.238h0c0.262,0,.561-0.015.914-0.05h0a3.422,3.422,0,0,0,1.534-.538h0a3.854,3.854,0,0,1-.614.055h0a2.506,2.506,0,0,1-.492-0.046h0a2.478,2.478,0,0,1-1.7-1.337h0a0.3,0.3,0,0,1,.1-0.364h0a0.3,0.3,0,0,1,.375.011h0a0.21,0.21,0,0,0,.031.02h0a1.089,1.089,0,0,0,.171.082h0a2.292,2.292,0,0,0,.827.133h0a4.662,4.662,0,0,0,1.159-.163h0a2.874,2.874,0,0,0,1.191-.579h0a3.972,3.972,0,0,1-1,.12h0a6.538,6.538,0,0,1-2.4-.512h0a19.368,19.368,0,0,1-1.912-.912h0a5.727,5.727,0,0,0-1.729-.585h0a3.887,3.887,0,0,0-.695-0.061h0a5.118,5.118,0,0,0-1.581.267h0c-0.079.025-.153,0.052-0.222,0.078h0c0.054,0.036.11,0.076,0.167,0.12h0a2.354,2.354,0,0,1,.917,1.6h0a3.588,3.588,0,0,1,.028.451h0a4.231,4.231,0,0,1-.364,1.675h0c0.305-.025.7-0.05,1.1-0.05h0c0.165,0,.331,0,0.493.014h0Z" transform="translate(-15.153 -14.72)"/>
    <path d="M27.032,34.627a1.749,1.749,0,0,1-.314-0.827h0a0.841,0.841,0,0,1-.011-0.138h0a2.022,2.022,0,0,1,.616-1.226h0a5.241,5.241,0,0,1,.578-0.544h0l0.2-.157,0.179,0.181a3.984,3.984,0,0,1,.936,1.5h0a1.55,1.55,0,0,1,.045.363h0a1.243,1.243,0,0,1-1.22,1.247h0c-0.041,0-.083,0-0.127,0H27.9a1.072,1.072,0,0,1-.865-0.4h0Z" transform="translate(-15.153 -14.72)"/>
    <path class="cls-1" d="M27.747,32.82a1.552,1.552,0,0,0-.468.842h0a0.344,0.344,0,0,0,0,.051h0a1.218,1.218,0,0,0,.2.56h0a0.5,0.5,0,0,0,.434.185h0c0.026,0,.056,0,0.085,0h0a0.664,0.664,0,0,0,.689-0.677h0a0.976,0.976,0,0,0-.029-0.227h0a2.542,2.542,0,0,0-.442-0.826h0c-0.06-.08-0.117-0.15-0.168-0.21h0c-0.089.081-.2,0.187-0.3,0.3h0Z" transform="translate(-15.153 -14.72)"/>
    <path d="M27.873,32.317" transform="translate(-15.153 -14.72)"/>
    <path d="M27.159,35.937a0.752,0.752,0,0,1-.429-0.635h0a0.752,0.752,0,0,1,.429-0.636h0a1.71,1.71,0,0,1,.826-0.2h0a1.709,1.709,0,0,1,.825.2h0a0.754,0.754,0,0,1,.43.636h0a0.753,0.753,0,0,1-.43.635h0a1.7,1.7,0,0,1-.825.2h0a1.7,1.7,0,0,1-.826-0.2h0Z" transform="translate(-15.153 -14.72)"/>
    <path class="cls-1" d="M28.529,35.439a0.227,0.227,0,0,0,.138-0.137h0a0.223,0.223,0,0,0-.138-0.138h0a1.135,1.135,0,0,0-.544-0.123h0a1.136,1.136,0,0,0-.545.123h0a0.226,0.226,0,0,0-.139.138h0a0.228,0.228,0,0,0,.139.137h0a1.148,1.148,0,0,0,.545.124h0a1.147,1.147,0,0,0,.544-0.124h0Z" transform="translate(-15.153 -14.72)"/>
    <path d="M17.5,37.851a1.74,1.74,0,0,1-.314-0.826h0a0.92,0.92,0,0,1-.011-0.139h0a2.02,2.02,0,0,1,.616-1.225h0a5.193,5.193,0,0,1,.578-0.545h0l0.2-.157,0.179,0.182a3.981,3.981,0,0,1,.935,1.5h0a1.555,1.555,0,0,1,.045.363h0a1.243,1.243,0,0,1-1.219,1.248h0c-0.041,0-.082,0-0.126,0H18.363a1.072,1.072,0,0,1-.865-0.4h0Z" transform="translate(-15.153 -14.72)"/>
    <path class="cls-1" d="M18.212,36.044a1.551,1.551,0,0,0-.468.842h0a0.287,0.287,0,0,0,0,.051h0a1.211,1.211,0,0,0,.2.56h0a0.5,0.5,0,0,0,.435.185h0c0.026,0,.055,0,0.084,0h0A0.663,0.663,0,0,0,19.155,37h0a0.923,0.923,0,0,0-.029-0.227h0a2.527,2.527,0,0,0-.442-0.826h0c-0.059-.079-0.116-0.15-0.167-0.21h0c-0.089.082-.2,0.187-0.3,0.3h0Z" transform="translate(-15.153 -14.72)"/>
    <g>
      <ellipse class="cls-1" cx="3.298" cy="23.807" rx="0.969" ry="0.547"/>
      <path d="M17.624,39.162a0.753,0.753,0,0,1-.43-0.635h0a0.751,0.751,0,0,1,.43-0.635h0a1.7,1.7,0,0,1,.826-0.2h0a1.7,1.7,0,0,1,.826.2h0a0.752,0.752,0,0,1,.429.635h0a0.753,0.753,0,0,1-.429.635h0a1.7,1.7,0,0,1-.826.2h0a1.7,1.7,0,0,1-.826-0.2h0Zm1.371-.5a0.225,0.225,0,0,0,.138-0.137h0A0.226,0.226,0,0,0,19,38.389h0a1.138,1.138,0,0,0-.545-0.124h0a1.139,1.139,0,0,0-.545.124h0a0.232,0.232,0,0,0-.139.137h0a0.231,0.231,0,0,0,.138.137h0a1.153,1.153,0,0,0,.546.123h0A1.151,1.151,0,0,0,19,38.664h0Z" transform="translate(-15.153 -14.72)"/>
    </g>
    <path d="M26.838,44.408s-0.812-.432-1.933-0.919h0a18.113,18.113,0,0,0-3.746-1.238h0c-2.462-.435-5.684-0.762-5.689-0.762h0l-0.251-.026-0.06-2.6,0.286-.007-0.286.007-0.006-.3,0.3,0.012a48.328,48.328,0,0,1,5.8.661h0a23.976,23.976,0,0,1,5.458,1.662h0l0.111,0.052,0.039,0.117a11.58,11.58,0,0,1,.388,1.577h0a5.153,5.153,0,0,1,.051.741h0a6.445,6.445,0,0,1-.051.817h0l-0.057.4-0.36-.192h0Z" transform="translate(-15.153 -14.72)"/>
    <path class="cls-1" d="M21.259,41.688a23.211,23.211,0,0,1,5.466,2.02h0c0.005-.1.009-0.21,0.009-0.33h0a4.5,4.5,0,0,0-.044-0.656h0a10.445,10.445,0,0,0-.329-1.366h0c-0.208-.093-0.7-0.3-1.4-0.553h0a24.2,24.2,0,0,0-3.8-1.012h0c-1.524-.272-2.958-0.435-4.009-0.53h0c-0.629-.057-1.119-0.09-1.412-0.106h0l0.042,1.791c0.807,0.086,3.4.374,5.479,0.741h0Z" transform="translate(-15.153 -14.72)"/>
    <path d="M25.1,42.18A21.172,21.172,0,0,0,21.8,41.1h0c-2.08-.434-4.275-0.651-4.279-0.651h0l-0.067-.007L15.294,39.1l0.3-.485,2.045,1.277c0.386,0.041,2.367.257,4.272,0.653h0a29.767,29.767,0,0,1,5.181,1.88h0l-0.244.517S26.1,42.587,25.1,42.18h0Z" transform="translate(-15.153 -14.72)"/>
    <polygon points="7.44 59.456 7.44 58.323 7.44 58.04 10.758 58.006 10.758 59.456 7.44 59.456 7.44 59.456"/>
    <polygon class="cls-1" points="8.012 58.883 10.187 58.883 10.187 58.584 8.012 58.606 8.012 58.883 8.012 58.883"/>
    <path d="M22.619,73.113a0.286,0.286,0,0,1,.044-0.307h0l0.43-.5-0.216-.251a0.285,0.285,0,0,1,0-.374h0l0.255-.293-0.3-.3a0.285,0.285,0,0,1-.053-0.327h0a2.149,2.149,0,0,1,.376-0.512h0a1.642,1.642,0,0,1,1.173-.523h0a1.53,1.53,0,0,1,1.158.563h0a2.13,2.13,0,0,1,.345.544h0a0.284,0.284,0,0,1-.048.294h0l-0.247.288,0.174,0.318a0.286,0.286,0,0,1-.036.326h0l-0.256.292,0.406,0.412-0.2.2,0.2-.2a0.286,0.286,0,0,1,.061.31h0a0.287,0.287,0,0,1-.262.177h0l-2.747.028h0a0.288,0.288,0,0,1-.26-0.166h0Z" transform="translate(-15.153 -14.72)"/>
    <path class="cls-1" d="M23.729,71.18a0.286,0.286,0,0,1,.011.389h0l-0.267.305,0.214,0.249a0.286,0.286,0,0,1,0,.374h0l-0.177.2,1.44-.015-0.12-.122a0.285,0.285,0,0,1-.012-0.388h0l0.3-.342-0.174-.316a0.288,0.288,0,0,1,.034-0.324h0L25.23,70.9a1.679,1.679,0,0,0-.17-0.236h0a0.955,0.955,0,0,0-.726-0.366h0a1.192,1.192,0,0,0-.932.548h0l0.328,0.332h0Z" transform="translate(-15.153 -14.72)"/>
    <path d="M25.054,38.318L24.8,38.289v-3.72l0.237-.041a1.957,1.957,0,0,1,.307-0.021h0a1.858,1.858,0,0,1,1.033.285h0a4.493,4.493,0,0,1,.947.946h0l0.031,0.015h0a2.106,2.106,0,0,0,.3.1h0a5.656,5.656,0,0,0,1.489.165h0a20.66,20.66,0,0,0,6.036-1.156h0C41.1,33,43.623,32.613,45.43,32.5h0c0.993-.061,1.617-0.088,1.975-0.1h0V32.384L47.7,32.392s1.039,0.028,2.374.11h0c1.807,0.111,4.334.494,10.249,2.363h0a20.678,20.678,0,0,0,6.036,1.156h0a4.268,4.268,0,0,0,1.82-.284h0a4.482,4.482,0,0,1,.947-0.946h0a1.848,1.848,0,0,1,1.033-.285h0a1.966,1.966,0,0,1,.306.021h0l0.238,0.04v3.721l-0.253.029a47.668,47.668,0,0,1-4.943.261h0c-0.579,0-1.179-.012-1.783-0.041h0c-3.435-.167-6.095-0.994-10.013-1.865h0a28.808,28.808,0,0,0-5.958-.56h0a28.789,28.789,0,0,0-5.959.56h0c-3.918.871-6.577,1.7-10.013,1.865h0c-0.6.029-1.2,0.041-1.784,0.041h0a47.719,47.719,0,0,1-4.942-.262h0Z" transform="translate(-15.153 -14.72)"/>
    <path class="cls-1" d="M30,38.008c0.571,0,1.163-.012,1.756-0.041h0c3.351-.162,5.971-0.974,9.917-1.852h0a29.309,29.309,0,0,1,6.082-.573h0a29.349,29.349,0,0,1,6.083.573h0c3.945,0.878,6.566,1.691,9.916,1.852h0c0.594,0.029,1.185.041,1.756,0.04h0c2.132,0,3.972-.164,4.624-0.23h0v-2.7a1.284,1.284,0,0,0-.685.188h0a3.278,3.278,0,0,0-.584.54h0c-0.16.181-.258,0.319-0.258,0.319h0l-0.03.042-0.043.029a4.143,4.143,0,0,1-2.171.4h0a21.239,21.239,0,0,1-6.208-1.182h0c-5.9-1.863-8.364-2.23-10.112-2.338h0c-1.179-.073-2.121-0.1-2.317-0.108H47.7c-0.245.005-.9,0.026-2.232,0.108h0c-1.748.107-4.214,0.475-10.112,2.338h0a21.221,21.221,0,0,1-6.208,1.182h0a4.135,4.135,0,0,1-2.171-.4h0l-0.044-.03L26.9,36.124s-0.1-.139-0.258-0.319h0a3.3,3.3,0,0,0-.585-0.54h0a1.284,1.284,0,0,0-.685-0.187h0v2.7c0.653,0.065,2.492.231,4.623,0.231h0Z" transform="translate(-15.153 -14.72)"/>
    <path d="M66.341,36.585a21.706,21.706,0,0,1-6.407-1.23h0c-5.223-1.661-7.142-2.382-12.182-2.391h0c-5.041.008-6.959,0.729-12.182,2.391h0a21.728,21.728,0,0,1-6.408,1.23h0A4.34,4.34,0,0,1,26.98,36.2h0l0.193-.524s0.142,0.019.388,0.038h0c0.245,0.02.594,0.039,1.014,0.039h0a11.186,11.186,0,0,0,3.058-.4h0c1.793-.512,5.309-3.128,7.629-4.612h0a15.247,15.247,0,0,1,8.172-2.718h0v0H48.07v0a15.249,15.249,0,0,1,8.172,2.718h0c2.319,1.484,5.836,4.1,7.629,4.612h0l-0.081.275-0.034.118,0.034-.118,0.081-.275a11.185,11.185,0,0,0,3.057.4h0a11.3,11.3,0,0,0,1.4-.078h0L68.524,36.2a4.34,4.34,0,0,1-2.179.386h0Z" transform="translate(-15.153 -14.72)"/>
    <path class="cls-1" d="M60.107,34.811c1.014,0.323,1.913.565,2.708,0.744h0a74.323,74.323,0,0,1-6.879-4.33h0a14.586,14.586,0,0,0-8.152-2.632H47.72a14.589,14.589,0,0,0-8.152,2.632h0a74.616,74.616,0,0,1-6.876,4.329h0c0.794-.179,1.691-0.421,2.7-0.743h0c5.194-1.657,7.253-2.416,12.356-2.418h0c5.1,0,7.161.761,12.355,2.418h0Z" transform="translate(-15.153 -14.72)"/>
    <path d="M67.587,35.029c-0.044,0-.085,0-0.129,0h0a1.242,1.242,0,0,1-1.216-1.247h0a1.517,1.517,0,0,1,.045-0.364h0a3.994,3.994,0,0,1,.936-1.5h0l0.179-.181,0.2,0.157a5.1,5.1,0,0,1,.578.544h0a2.018,2.018,0,0,1,.616,1.226h0a1.066,1.066,0,0,1-.01.137h0a1.755,1.755,0,0,1-.315.828h0a1.071,1.071,0,0,1-.864.4h-0.02Z" transform="translate(-15.153 -14.72)"/>
    <path class="cls-1" d="M67.285,32.726a2.529,2.529,0,0,0-.442.827h0a0.944,0.944,0,0,0-.029.226h0a0.663,0.663,0,0,0,.686.676h0c0.032,0,.063,0,0.088,0h0a0.5,0.5,0,0,0,.435-0.184h0a1.211,1.211,0,0,0,.2-0.557h0a0.473,0.473,0,0,0,0-.055h0a1.173,1.173,0,0,0-.285-0.622h0a4.161,4.161,0,0,0-.487-0.524h0c-0.05.06-.108,0.13-0.168,0.21h0Z" transform="translate(-15.153 -14.72)"/>
    <path d="M66.693,35.937a0.751,0.751,0,0,1-.429-0.635h0a0.754,0.754,0,0,1,.429-0.636h0a1.708,1.708,0,0,1,.826-0.2h0a1.708,1.708,0,0,1,.826.2h0a0.754,0.754,0,0,1,.43.636h0a0.753,0.753,0,0,1-.43.635h0a1.7,1.7,0,0,1-.826.2h0a1.7,1.7,0,0,1-.826-0.2h0Z" transform="translate(-15.153 -14.72)"/>
    <path class="cls-1" d="M68.064,35.439A0.228,0.228,0,0,0,68.2,35.3h0a0.226,0.226,0,0,0-.138-0.138h0a1.14,1.14,0,0,0-.545-0.123h0a1.137,1.137,0,0,0-.545.123h0a0.23,0.23,0,0,0-.139.138h0a0.231,0.231,0,0,0,.139.137h0a1.149,1.149,0,0,0,.545.124h0a1.151,1.151,0,0,0,.545-0.124h0Z" transform="translate(-15.153 -14.72)"/>
    <path d="M77.121,38.254c-0.043,0-.085,0-0.128,0h0A1.242,1.242,0,0,1,75.776,37h0a1.532,1.532,0,0,1,.045-0.363h0a3.978,3.978,0,0,1,.936-1.5h0l0.179-.182,0.2,0.157a5.26,5.26,0,0,1,.578.545h0a2.014,2.014,0,0,1,.615,1.225h0a0.91,0.91,0,0,1-.01.137h0a1.753,1.753,0,0,1-.314.828h0a1.074,1.074,0,0,1-.866.4H77.121Z" transform="translate(-15.153 -14.72)"/>
    <path class="cls-1" d="M76.819,35.951a2.543,2.543,0,0,0-.443.825h0a0.946,0.946,0,0,0-.028.226h0a0.663,0.663,0,0,0,.686.677h0c0.033,0,.061,0,0.087,0h0a0.5,0.5,0,0,0,.435-0.184h0a1.211,1.211,0,0,0,.2-0.558h0a0.45,0.45,0,0,0,0-.054h0a1.174,1.174,0,0,0-.285-0.622h0a4.08,4.08,0,0,0-.487-0.525h0c-0.051.06-.108,0.131-0.168,0.211h0Z" transform="translate(-15.153 -14.72)"/>
    <path d="M76.227,39.162a0.751,0.751,0,0,1-.429-0.635h0a0.75,0.75,0,0,1,.429-0.635h0a1.7,1.7,0,0,1,.826-0.2h0a1.7,1.7,0,0,1,.826.2h0a0.752,0.752,0,0,1,.429.635h0a0.752,0.752,0,0,1-.429.635h0a1.7,1.7,0,0,1-.826.2h0a1.7,1.7,0,0,1-.826-0.2h0Z" transform="translate(-15.153 -14.72)"/>
    <path class="cls-1" d="M77.6,38.664a0.232,0.232,0,0,0,.139-0.137h0a0.233,0.233,0,0,0-.139-0.137h0a1.135,1.135,0,0,0-.545-0.124h0a1.135,1.135,0,0,0-.545.124h0a0.23,0.23,0,0,0-.139.137h0a0.229,0.229,0,0,0,.139.137h0a1.148,1.148,0,0,0,.545.123h0a1.148,1.148,0,0,0,.545-0.123h0Z" transform="translate(-15.153 -14.72)"/>
    <path d="M68.248,44.2a6.151,6.151,0,0,1-.052-0.817h0a4.958,4.958,0,0,1,.052-0.742h0a11.526,11.526,0,0,1,.388-1.577h0l0.039-.117,0.111-.052a23.98,23.98,0,0,1,5.458-1.663h0a48.353,48.353,0,0,1,5.8-.66h0l0.3-.013-0.067,2.908-0.251.025c-0.006,0-3.227.328-5.689,0.762h0A18.071,18.071,0,0,0,70.6,43.489h0c-1.121.487-1.931,0.918-1.932,0.919h0l-0.36.191-0.057-.4h0Z" transform="translate(-15.153 -14.72)"/>
    <path class="cls-1" d="M68.813,42.723a4.424,4.424,0,0,0-.044.656h0c0,0.12,0,.231.009,0.33h0a23.245,23.245,0,0,1,5.467-2.021h0c2.079-.367,4.672-0.655,5.479-0.741h0l0.041-1.791c-0.292.017-.783,0.049-1.412,0.106h0c-1.051.095-2.485,0.258-4.009,0.53h0a24.2,24.2,0,0,0-3.8,1.012h0c-0.7.249-1.193,0.459-1.4,0.553h0a10.534,10.534,0,0,0-.329,1.366h0Z" transform="translate(-15.153 -14.72)"/>
    <path d="M68.409,42.422a29.675,29.675,0,0,1,5.181-1.88h0c1.906-.4,3.889-0.614,4.272-0.654h0l2.044-1.277,0.3,0.485-2.158,1.347-0.066.007s-2.2.218-4.279,0.651h0a21.258,21.258,0,0,0-3.3,1.078h0c-1.009.407-1.754,0.758-1.756,0.759h0l-0.244-.517h0Z" transform="translate(-15.153 -14.72)"/>
    <path d="M47.764,87.895H22.5a1.732,1.732,0,0,1-.624-0.133h0a1.073,1.073,0,0,1-.685-1.027h0a1.082,1.082,0,0,1,.587-1.021h0a1.343,1.343,0,0,1,.561-0.14H73.163v0.571H22.324c-0.016,0-.04,0-0.071.009h0a0.714,0.714,0,0,0-.214.069h0a0.5,0.5,0,0,0-.274.511h0a0.477,0.477,0,0,0,.2.428h0a1,1,0,0,0,.415.148h0a0.89,0.89,0,0,0,.12.012H73s0.042,0,.12-0.012h0a1.024,1.024,0,0,0,.28-0.076h0a0.49,0.49,0,0,0,.338-0.5h0a0.532,0.532,0,0,0-.171-0.444h0a0.684,0.684,0,0,0-.317-0.136h0a0.477,0.477,0,0,0-.087-0.01h0V85.573a1.341,1.341,0,0,1,.56.14h0a1.08,1.08,0,0,1,.587,1.021h0a1.074,1.074,0,0,1-.684,1.027h0a1.734,1.734,0,0,1-.625.133H47.764Z" transform="translate(-15.153 -14.72)"/>
    <polygon points="54.439 59.456 54.439 58.006 57.475 58.037 57.475 58.037 57.758 58.04 57.758 59.456 54.439 59.456 54.439 59.456"/>
    <polygon class="cls-1" points="55.011 58.884 57.186 58.884 57.186 58.606 55.011 58.584 55.011 58.884 55.011 58.884"/>
    <path d="M72.622,73.279l-2.747-.028h0a0.285,0.285,0,0,1-.261-0.177h0a0.287,0.287,0,0,1,.06-0.31h0l0.407-.412-0.256-.292a0.287,0.287,0,0,1-.036-0.326h0l0.175-.318-0.248-.287a0.284,0.284,0,0,1-.048-0.294h0a2.1,2.1,0,0,1,.345-0.545h0a1.528,1.528,0,0,1,1.158-.562h0a1.642,1.642,0,0,1,1.173.523h0a2.127,2.127,0,0,1,.376.511h0a0.286,0.286,0,0,1-.053.327h0l-0.3.3,0.256,0.292a0.287,0.287,0,0,1,0,.376h0l-0.215.249,0.43,0.5a0.285,0.285,0,0,1,.043.307h0a0.286,0.286,0,0,1-.259.166h0Z" transform="translate(-15.153 -14.72)"/>
    <path class="cls-1" d="M71.994,72.7l-0.177-.2a0.287,0.287,0,0,1,0-.374h0l0.215-.249-0.267-.3a0.286,0.286,0,0,1,.012-0.389h0l0.327-.331a1.669,1.669,0,0,0-.165-0.2h0A1.073,1.073,0,0,0,71.17,70.3h0a1.1,1.1,0,0,0-.9.6h0l0.251,0.292a0.284,0.284,0,0,1,.035.323h0l-0.174.317,0.3,0.342a0.286,0.286,0,0,1-.011.389h0l-0.121.122,1.44,0.015h0Z" transform="translate(-15.153 -14.72)"/>
    <path d="M46.784,19.025a1.222,1.222,0,0,1-.278-0.775h0c0-.019,0-0.032,0-0.039h0a3.054,3.054,0,0,1,.489-1.248h0c0.232-.4.46-0.725,0.463-0.729h0l0.248-.354,0.228,0.367s0.2,0.321.406,0.709h0a3.877,3.877,0,0,1,.465,1.188h0c0,0.044.006,0.09,0.006,0.137h0a1.043,1.043,0,0,1-.276.741h0a1.2,1.2,0,0,1-.816.334H47.71l-0.1,0H47.6a1.055,1.055,0,0,1-.813-0.333h0Z" transform="translate(-15.153 -14.72)"/>
    <path class="cls-1" d="M47.077,18.217a0.676,0.676,0,0,0,.135.429h0a0.489,0.489,0,0,0,.4.14h0l0.079,0h0a0.64,0.64,0,0,0,.435-0.16h0a0.47,0.47,0,0,0,.115-0.344h0c0-.027,0-0.057,0-0.086h0a3.682,3.682,0,0,0-.4-0.97h0c-0.055-.1-0.108-0.2-0.158-0.287h0c-0.059.094-.125,0.2-0.189,0.313h0a2.856,2.856,0,0,0-.411.961H47.059l0.019,0.006h0Z" transform="translate(-15.153 -14.72)"/>
    <path d="M46.919,20.1a0.761,0.761,0,0,1-.368-0.624h0a0.762,0.762,0,0,1,.368-0.626h0a1.335,1.335,0,0,1,.739-0.208h0a1.335,1.335,0,0,1,.739.208h0a0.762,0.762,0,0,1,.367.626h0a0.759,0.759,0,0,1-.367.624h0a1.332,1.332,0,0,1-.739.209h0a1.336,1.336,0,0,1-.739-0.209h0Z" transform="translate(-15.153 -14.72)"/>
    <path class="cls-1" d="M48.08,19.626a0.2,0.2,0,0,0,.114-0.149h0a0.2,0.2,0,0,0-.114-0.15h0a0.778,0.778,0,0,0-.421-0.112h0a0.78,0.78,0,0,0-.422.112h0a0.206,0.206,0,0,0-.114.15h0a0.2,0.2,0,0,0,.114.149h0a0.772,0.772,0,0,0,.422.113h0a0.769,0.769,0,0,0,.421-0.113h0Z" transform="translate(-15.153 -14.72)"/>
    <path d="M46.334,21.916a1.114,1.114,0,0,1-.632-0.928h0a1.115,1.115,0,0,1,.632-0.929h0a2.692,2.692,0,0,1,1.324-.32h0a2.689,2.689,0,0,1,1.323.32h0a1.115,1.115,0,0,1,.632.929h0a1.114,1.114,0,0,1-.632.928h0a2.693,2.693,0,0,1-1.323.321h0a2.7,2.7,0,0,1-1.324-.321h0Z" transform="translate(-15.153 -14.72)"/>
    <path class="cls-1" d="M46.621,20.554a0.562,0.562,0,0,0-.346.434h0a0.561,0.561,0,0,0,.346.433h0a2.13,2.13,0,0,0,1.038.244h0A2.132,2.132,0,0,0,48.7,21.42h0a0.564,0.564,0,0,0,.346-0.433h0a0.564,0.564,0,0,0-.346-0.434h0a2.132,2.132,0,0,0-1.038-.244H47.652a2.122,2.122,0,0,0-1.032.244h0Z" transform="translate(-15.153 -14.72)"/>
    <path d="M46.181,22.866a0.556,0.556,0,0,1-.209-0.416h0a0.555,0.555,0,0,1,.209-0.416h0a1.27,1.27,0,0,1,.39-0.215h0a3.261,3.261,0,0,1,1.088-.167h0a2.422,2.422,0,0,1,1.477.383h0a0.552,0.552,0,0,1,.208.416h0a0.554,0.554,0,0,1-.208.416h0a1.247,1.247,0,0,1-.389.215h0a3.25,3.25,0,0,1-1.089.168h0a2.423,2.423,0,0,1-1.478-.383h0Z" transform="translate(-15.153 -14.72)"/>
    <path class="cls-1" d="M48.709,22.471l0.032-.021h0a0.818,0.818,0,0,0-.191-0.094h0a2.7,2.7,0,0,0-.892-0.132h0a2.272,2.272,0,0,0-1.051.205h0l-0.032.021h0a0.79,0.79,0,0,0,.191.095h0a2.722,2.722,0,0,0,.892.133h0a2.274,2.274,0,0,0,1.05-.206h0Z" transform="translate(-15.153 -14.72)"/>
    <path class="cls-2" d="M45.925,25.4a1.418,1.418,0,0,1-.8-1.175h0a1.421,1.421,0,0,1,.8-1.177h0a3.5,3.5,0,0,1,1.734-.424h0a3.493,3.493,0,0,1,1.733.424h0a1.417,1.417,0,0,1,.8,1.177h0a1.415,1.415,0,0,1-.8,1.175h0a3.488,3.488,0,0,1-1.733.424h0a3.491,3.491,0,0,1-1.734-.424h0Z" transform="translate(-15.153 -14.72)"/>
    <path class="cls-1" d="M49.1,24.907a0.863,0.863,0,0,0,.517-0.682h0a0.862,0.862,0,0,0-.517-0.683h0a2.916,2.916,0,0,0-1.445-.346h0a2.918,2.918,0,0,0-1.445.346h0a0.861,0.861,0,0,0-.517.683h0a0.862,0.862,0,0,0,.517.682h0a2.927,2.927,0,0,0,1.445.346h0a2.926,2.926,0,0,0,1.445-.346h0Z" transform="translate(-15.153 -14.72)"/>
    <path d="M49.7,28.753c-0.61-.068-1.8-0.11-2.046-0.118h0c-0.248.008-1.435,0.05-2.047,0.118h0c-0.487.052-.847,0.123-1.175,0.124h0a1.311,1.311,0,0,1-.414-0.058h0a0.763,0.763,0,0,1-.51-0.732h0a0.907,0.907,0,0,1,.308-0.665h0a3.528,3.528,0,0,1,1.86-.726h0a11.87,11.87,0,0,1,1.755-.11h0l0.218,0h0c0.049,0,.125,0,0.226,0h0a12.1,12.1,0,0,1,1.756.111h0a3.53,3.53,0,0,1,1.86.726h0a0.908,0.908,0,0,1,.307.664h0a0.764,0.764,0,0,1-.511.733h0a1.321,1.321,0,0,1-.413.058h0c-0.328,0-.689-0.071-1.175-0.125h0Z" transform="translate(-15.153 -14.72)"/>
    <path class="cls-1" d="M47.668,28.064c0.233,0.008,1.438.049,2.1,0.122h0c0.506,0.057.874,0.122,1.113,0.121h0a0.765,0.765,0,0,0,.234-0.029h0a0.2,0.2,0,0,0,.118-0.191h0a0.337,0.337,0,0,0-.123-0.244h0a3.019,3.019,0,0,0-1.566-.581h0a11.615,11.615,0,0,0-1.662-.1h0c-0.1,0-.18,0-0.212,0H47.654l-0.218,0h0a11.309,11.309,0,0,0-1.661.1h0a3.013,3.013,0,0,0-1.565.581h0a0.33,0.33,0,0,0-.125.245h0a0.2,0.2,0,0,0,.117.19h0a0.767,0.767,0,0,0,.235.029h0c0.238,0,.607-0.065,1.112-0.121h0c0.662-.073,1.867-0.114,2.1-0.122h0.019Z" transform="translate(-15.153 -14.72)"/>
    <path class="cls-3" d="M47.867,75.49h-0.23a10.385,10.385,0,0,1-5.825-1.6h0a9.686,9.686,0,0,1-3.172-3.507h0a13.091,13.091,0,0,1-1.512-5.023h0V41.172h1.633v24.12l0,0.02h0c0,0.032.007,0.083,0.014,0.15h0c0.014,0.134.039,0.334,0.082,0.583h0a12.191,12.191,0,0,0,.509,1.964h0a8.763,8.763,0,0,0,3.341,4.522h0a8.756,8.756,0,0,0,4.93,1.329h0.23c4.017-.02,6.078-1.848,7.33-3.85h0a11.572,11.572,0,0,0,1.542-4.659h0c0-.031,0-0.051.005-0.064h0V41.172h1.632V65.365a12.781,12.781,0,0,1-.7,3.184h0a10.376,10.376,0,0,1-3.986,5.346h0a10.375,10.375,0,0,1-5.81,1.6H47.867Z" transform="translate(-15.153 -14.72)"/>
    <ellipse class="cls-4" cx="32.599" cy="42.08" rx="7.503" ry="7.613"/>
    <path class="cls-4" d="M66.389,79.115v2.921a1.023,1.023,0,0,1-.635.805,1.5,1.5,0,0,1-1.1-.136,2.58,2.58,0,0,1-.8-0.635,2.966,2.966,0,0,1-.5-0.895V79.138H61.978V83.8l-0.8-.792V82.263a3.37,3.37,0,0,1-1.584.408,2.41,2.41,0,0,1-1.286-1c-0.184-.362-0.551-0.815-0.23-1.086a6.189,6.189,0,0,0,.965-0.5,0.789,0.789,0,0,0-.092-0.86,1.251,1.251,0,0,0-.367-0.136H56.65v4.665l-0.895-.883V79.138H53.986v1.948a0.8,0.8,0,0,1-.23.453c-0.23.271-.459,0.317-0.276,0.588s1.194,1.45,1.194,1.45l-0.367.317-1.976-2.446S51.919,81,52.195,80.723a0.86,0.86,0,0,1,.873.182V79.048h-2.2V83.8l-0.9-.883V79.048H48.7v4.8l-0.919-.905V80.95H46.591s-0.367-.045-0.367.181v0.634H45.856l-0.689-.86s-0.367-.453-0.092-0.589a2.278,2.278,0,0,1,.873-0.091h1.745V79.093H44.019v4.937L43.078,83.1V81.856H41.355s0.046,1.087-.23.906a9.281,9.281,0,0,1-.919-0.951c-0.275-.271-0.459-0.589-0.138-0.634l0.321-.045V79.093H38.507v4.892l-0.941-.928V79.138H36.3v4.846l-0.941-.928V79.138h-1.4V83.8l-0.85-.837V82.082a3.268,3.268,0,0,1-1.676.589,2.05,2.05,0,0,1-1.47-.951,3.643,3.643,0,0,1-1.011.181,2,2,0,0,1-.689-0.407l-0.781.588,1.333,1.676-0.321.363-1.562-2.084s-0.781-.951-0.459-1.223,0.533,0.425.78,0.181a1.371,1.371,0,0,0,.184-0.407v-1.45H26.014l-0.551-.77H37.726l-0.092-.317a1.332,1.332,0,0,1,.321-1.54c1.47-1.132,3.858,1.223,3.858,1.223l-0.229.227s-2.215-1.64-2.939-.861a1.465,1.465,0,0,0-.321,1.268l31.05,0.046,0.6,0.724h-1.24v4.62l-0.781-.77V79.125ZM28.172,80.95a1.787,1.787,0,0,0,.781.272A1.129,1.129,0,0,0,29.734,81a1.883,1.883,0,0,1,1.47-1.268,3.526,3.526,0,0,1,1.975.861v-1.45H28.163Zm5.052,0.272a2.013,2.013,0,0,0-2.067-.5c-1.056.5-.459,1.45,0,1.45A8.85,8.85,0,0,0,33.225,81.222ZM41.309,81h1.745V79.138H41.309V81Zm18.74-.317a0.947,0.947,0,0,1-.781.408c-0.689.135-.551,0.544-0.23,0.905s2.113-.725,2.113-0.725L61.2,79.138H59.636Zm4.267,0.278a1.22,1.22,0,0,0,.362.988,0.625,0.625,0,0,0,.883-0.541c0.07-.511.046-2.31,0.046-2.31H64.321Z" transform="translate(-15.153 -14.72)"/>
    <g>
      <path class="cls-2" d="M30.146,101.834a6.925,6.925,0,0,0,2.957-.686,1.713,1.713,0,0,0-.018-3.131,7.122,7.122,0,0,0-2.994-.672l0.055,4.488h0ZM30.091,96.65a5.062,5.062,0,0,0,2.5-.65,1.751,1.751,0,0,0,.874-1.533,1.811,1.811,0,0,0-.88-1.574,4.583,4.583,0,0,0-2.435-.639l-0.055,4.4h0Zm-0.419-5.26q1.708,0,2.852.068a9.383,9.383,0,0,1,1.643.2,4.5,4.5,0,0,1,1.98.947,1.987,1.987,0,0,1,.662,1.5,1.956,1.956,0,0,1-.762,1.547,5.147,5.147,0,0,1-2.238.965,6.2,6.2,0,0,1,2.754,1.061,2.248,2.248,0,0,1,.938,1.84,2.484,2.484,0,0,1-.556,1.629,3.832,3.832,0,0,1-1.685,1.086,7.778,7.778,0,0,1-1.825.348c-0.781.074-1.777,0.111-2.979,0.111H27.209l-0.58-.477c0.048-.953.082-1.861,0.106-2.725S26.772,97.8,26.772,97s-0.012-1.625-.037-2.467-0.058-1.709-.106-2.607l0.613-.531h2.43Z" transform="translate(-15.153 -14.72)"/>
      <path class="cls-2" d="M44.2,95.932q-1.335,1.688-2.633,3.5t-2.582,3.758l-1.093-1.42q1.621-2.189,2.891-3.973t2.36-3.387L41.98,92.885q0.765-.451,1.512-0.932t1.458-.965q1.676,2.6,3.432,5.143t3.6,5.025q-0.71.407-1.476,0.91t-1.6,1.125q-1.157-1.866-2.327-3.67T44.2,95.932Z" transform="translate(-15.153 -14.72)"/>
      <path class="cls-2" d="M56.492,97.828a4.162,4.162,0,0,0,2.347-.865,2.366,2.366,0,0,0,.8-1.881,2.471,2.471,0,0,0-.783-1.908,3.927,3.927,0,0,0-2.263-.889c-0.037.836-.061,1.641-0.079,2.422s-0.027,1.531-.027,2.256v0.865h0Zm-2.946,4.863-0.586-.477c0.049-.953.082-1.861,0.106-2.725S53.1,97.8,53.1,97s-0.012-1.625-.037-2.463-0.058-1.713-.106-2.611l0.613-.531h2.242q2.181,0,3.194.088a6.34,6.34,0,0,1,1.567.293,3.935,3.935,0,0,1,1.74,1.221,2.909,2.909,0,0,1,.592,1.822A3.134,3.134,0,0,1,61.3,97.674a9.816,9.816,0,0,1-4.81,1.018c0.03,0.627.076,1.272,0.142,1.941s0.149,1.353.249,2.059c-0.273-.016-0.55-0.029-0.832-0.037s-0.565-.012-0.85-0.012-0.565,0-.838.012S53.812,102.676,53.546,102.691Z" transform="translate(-15.153 -14.72)"/>
      <path class="cls-2" d="M64.383,102.863l-0.584-.6a2.283,2.283,0,0,0,.384-0.051,2.219,2.219,0,0,0,.366-0.115,1.958,1.958,0,0,0,1.186-1.129,2.506,2.506,0,0,0-.239-1.951c-0.764-1.7-1.924-3.375-1.253-5.356a3.58,3.58,0,0,1,2.216-2.154,4.822,4.822,0,0,1,.965-0.277,4.932,4.932,0,0,1,1.017-.062l0.565,0.551c-0.165.035-.32,0.074-0.466,0.115a4.141,4.141,0,0,0-.408.141,1.569,1.569,0,0,0-1.1,1.154c-0.357,1.648,1.445,3.256,1.724,5.586a3.115,3.115,0,0,1-.136,1.322,3.729,3.729,0,0,1-.9,1.5,5.641,5.641,0,0,1-2.5,1.228A3.907,3.907,0,0,1,64.383,102.863Z" transform="translate(-15.153 -14.72)"/>
    </g>
    <ellipse class="cls-4" cx="29" cy="85.927" rx="1.748" ry="1.723"/>
    <path class="cls-2" d="M83.075,35.261a0.709,0.709,0,0,0,.147-0.463,0.572,0.572,0,0,0-.274-0.518,1.5,1.5,0,0,0-.807-0.177H81.157v2.556h0.549V35.593h0.4l0.507,1.066h0.612L82.652,35.5A0.711,0.711,0,0,0,83.075,35.261Zm-0.557-.1a0.835,0.835,0,0,1-.45.095H81.706V34.449h0.336a0.851,0.851,0,0,1,.469.1,0.348,0.348,0,0,1,.147.313A0.332,0.332,0,0,1,82.518,35.16Z" transform="translate(-15.153 -14.72)"/>
    <path d="M50.172,26.781a2.191,2.191,0,0,1-.854-0.663,4.36,4.36,0,0,1-.284-0.522,1.063,1.063,0,0,1-.041-0.106l-0.006-.018-0.054-.239-1.273.109-1.274-.109-0.054.239a2.981,2.981,0,0,1-.332.646,1.76,1.76,0,0,1-.575.513c-0.108.065-.207,0.116-0.279,0.15s-0.11.05-.11,0.05l0.157,0.547s0.315-.058.788-0.117a14.309,14.309,0,0,1,1.706-.117,13.546,13.546,0,0,1,1.67.116c0.457,0.058.765,0.117,0.766,0.116l0.16-.546S50.244,26.815,50.172,26.781Zm-2.486-.209c-0.479,0-.961.034-1.378,0.076a1.8,1.8,0,0,0,.177-0.229,5.088,5.088,0,0,0,.314-0.577l0.859,0.073,0.86-.073a4.908,4.908,0,0,0,.314.577,1.819,1.819,0,0,0,.172.224C48.607,26.6,48.148,26.572,47.686,26.572Z" transform="translate(-15.153 -14.72)"/>
  </g>
</svg>
